<mxfile host="app.diagrams.net" modified="2022-05-31T06:50:34.056Z" agent="5.0 (X11)" etag="cEoxD1w6NxxU_ZvXrh7K" version="18.1.3" type="github">
  <diagram id="zSE5x3ySCBXjwJoquVUB" name="Page-1">
    <mxGraphModel dx="926" dy="557" grid="1" gridSize="10" guides="1" tooltips="1" connect="1" arrows="1" fold="1" page="1" pageScale="1" pageWidth="827" pageHeight="1169" math="0" shadow="0">
      <root>
        <mxCell id="0" />
        <mxCell id="1" parent="0" />
        <mxCell id="OYDaGNAhokZ-_sb0OmZ2-1" value="" style="rounded=0;whiteSpace=wrap;html=1;" vertex="1" parent="1">
          <mxGeometry x="160" y="120" width="440" height="200" as="geometry" />
        </mxCell>
      </root>
    </mxGraphModel>
  </diagram>
</mxfile>
